<?xml version="1.0" standalone="no"?><!DOCTYPE svg PUBLIC "-//W3C//DTD SVG 1.1//EN" "http://www.w3.org/Graphics/SVG/1.1/DTD/svg11.dtd"><svg t="1753080169963" class="icon" viewBox="0 0 1024 1024" version="1.1" xmlns="http://www.w3.org/2000/svg" p-id="5719" xmlns:xlink="http://www.w3.org/1999/xlink" width="200" height="200"><path d="M401.92 76.8c-2.97984 32.6656 9.21088 70.51008-14.9632 97.41568-30.4 34.53952-92.20608 5.4784-87.4368-39.3856V76.8c-48.17408 1.54112-96.91136-3.456-144.65536 3.26912C102.43328 92.02432 70.53824 146.87232 76.8 198.55872c0.3584 218.38336-0.71168 436.8128 0.5376 655.16544C81.5872 911.67232 139.52256 954.3168 196.0448 947.2c219.22048-0.3584 438.48704 0.71424 657.67936-0.5376 57.94816-4.2496 100.5952-62.18752 93.47584-118.7072-0.3584-219.22048 0.71424-438.48704-0.5376-657.67936C942.4128 112.32768 884.47744 69.6832 827.9552 76.8H724.48c-2.97984 32.6656 9.21088 70.51008-14.9632 97.41568-30.4 34.53952-92.20608 5.4784-87.4368-39.3856V76.8z m322.56 0v-3.42784zM241.9456 348.864c180.94592 0.17664 361.91232-0.35072 542.848 0.26368 35.66848 2.41408 50.46784 39.96416 45.952 71.05792-0.17664 123.04128 0.35072 246.09792-0.26368 369.1264-2.41152 35.67104-39.96416 50.4704-71.05536 45.952-174.24128-0.17408-348.50048 0.35072-522.73152-0.26112-35.66848-2.41408-50.46528-39.96416-45.952-71.05792 0.1792-123.04128-0.34816-246.10048 0.26624-369.12896 2.07872-25.4848 25.40032-46.46912 50.93632-45.952z" p-id="5720" fill="#1296db"></path><path d="M512 453.99808l-13.1072-12.60288a118.17472 115.51488 0 0 0-167.16544 163.19232L512 780.8l180.2752-176.4224a118.17472 115.51488 0 0 0-167.168-163.19232z" p-id="5721" fill="#1296db"></path></svg>